<?xml version="1.0" encoding="UTF-8"?>
<svg xmlns="http://www.w3.org/2000/svg" xmlns:xlink="http://www.w3.org/1999/xlink" width="375pt" height="374.999991pt" viewBox="0 0 375 374.999991" version="1.2">
<g id="surface1">
<path style=" stroke:none;fill-rule:nonzero;fill:rgb(0%,1.179504%,3.529358%);fill-opacity:1;" d="M 375.015625 187.507812 C 375.015625 190.574219 374.941406 193.644531 374.789062 196.707031 C 374.640625 199.773438 374.414062 202.832031 374.113281 205.886719 C 373.8125 208.941406 373.4375 211.984375 372.984375 215.019531 C 372.535156 218.054688 372.011719 221.078125 371.414062 224.089844 C 370.8125 227.097656 370.140625 230.089844 369.394531 233.066406 C 368.652344 236.042969 367.832031 239 366.941406 241.9375 C 366.050781 244.875 365.089844 247.789062 364.054688 250.675781 C 363.019531 253.566406 361.917969 256.429688 360.742188 259.261719 C 359.566406 262.097656 358.324219 264.902344 357.011719 267.675781 C 355.699219 270.449219 354.320312 273.191406 352.875 275.898438 C 351.429688 278.605469 349.917969 281.273438 348.339844 283.90625 C 346.761719 286.539062 345.121094 289.128906 343.414062 291.679688 C 341.710938 294.230469 339.945312 296.738281 338.117188 299.203125 C 336.289062 301.667969 334.398438 304.089844 332.453125 306.460938 C 330.507812 308.832031 328.503906 311.15625 326.441406 313.429688 C 324.382812 315.703125 322.265625 317.925781 320.097656 320.09375 C 317.925781 322.265625 315.703125 324.378906 313.429688 326.441406 C 311.15625 328.5 308.832031 330.503906 306.460938 332.453125 C 304.089844 334.398438 301.671875 336.285156 299.207031 338.113281 C 296.742188 339.941406 294.234375 341.707031 291.683594 343.414062 C 289.128906 345.117188 286.539062 346.761719 283.90625 348.335938 C 281.273438 349.914062 278.605469 351.425781 275.898438 352.875 C 273.191406 354.320312 270.453125 355.699219 267.679688 357.011719 C 264.902344 358.324219 262.097656 359.566406 259.265625 360.742188 C 256.429688 361.914062 253.566406 363.019531 250.675781 364.054688 C 247.789062 365.085938 244.875 366.050781 241.9375 366.941406 C 239.003906 367.832031 236.046875 368.648438 233.070312 369.394531 C 230.09375 370.140625 227.097656 370.8125 224.089844 371.410156 C 221.078125 372.011719 218.058594 372.535156 215.019531 372.984375 C 211.984375 373.433594 208.941406 373.8125 205.886719 374.113281 C 202.832031 374.414062 199.773438 374.636719 196.707031 374.789062 C 193.644531 374.9375 190.578125 375.015625 187.507812 375.015625 C 184.441406 375.015625 181.371094 374.9375 178.308594 374.789062 C 175.242188 374.636719 172.183594 374.414062 169.128906 374.113281 C 166.074219 373.8125 163.03125 373.433594 159.996094 372.984375 C 156.960938 372.535156 153.9375 372.011719 150.925781 371.410156 C 147.917969 370.8125 144.925781 370.140625 141.949219 369.394531 C 138.972656 368.648438 136.015625 367.832031 133.078125 366.941406 C 130.140625 366.050781 127.226562 365.085938 124.339844 364.054688 C 121.449219 363.019531 118.585938 361.914062 115.753906 360.742188 C 112.917969 359.566406 110.113281 358.324219 107.339844 357.011719 C 104.566406 355.699219 101.824219 354.320312 99.117188 352.875 C 96.410156 351.425781 93.742188 349.914062 91.109375 348.335938 C 88.476562 346.761719 85.886719 345.117188 83.335938 343.414062 C 80.785156 341.707031 78.273438 339.941406 75.808594 338.113281 C 73.34375 336.285156 70.925781 334.398438 68.554688 332.453125 C 66.183594 330.503906 63.859375 328.5 61.585938 326.441406 C 59.3125 324.378906 57.089844 322.265625 54.921875 320.09375 C 52.75 317.925781 50.636719 315.703125 48.574219 313.429688 C 46.515625 311.15625 44.511719 308.832031 42.5625 306.460938 C 40.617188 304.089844 38.730469 301.667969 36.902344 299.203125 C 35.074219 296.738281 33.308594 294.230469 31.601562 291.679688 C 29.898438 289.128906 28.253906 286.539062 26.679688 283.90625 C 25.101562 281.273438 23.589844 278.605469 22.140625 275.898438 C 20.695312 273.191406 19.316406 270.449219 18.003906 267.675781 C 16.691406 264.902344 15.449219 262.097656 14.273438 259.261719 C 13.101562 256.429688 11.996094 253.566406 10.960938 250.675781 C 9.929688 247.789062 8.964844 244.875 8.074219 241.9375 C 7.183594 239 6.367188 236.042969 5.621094 233.066406 C 4.875 230.089844 4.203125 227.097656 3.605469 224.089844 C 3.003906 221.078125 2.480469 218.054688 2.03125 215.019531 C 1.582031 211.984375 1.203125 208.941406 0.902344 205.886719 C 0.601562 202.832031 0.378906 199.773438 0.226562 196.707031 C 0.078125 193.644531 0 190.574219 0 187.507812 C 0 184.4375 0.078125 181.371094 0.226562 178.304688 C 0.378906 175.242188 0.601562 172.183594 0.902344 169.128906 C 1.203125 166.074219 1.582031 163.03125 2.03125 159.992188 C 2.480469 156.957031 3.003906 153.9375 3.605469 150.925781 C 4.203125 147.917969 4.875 144.921875 5.621094 141.945312 C 6.367188 138.96875 7.183594 136.011719 8.074219 133.078125 C 8.964844 130.140625 9.929688 127.226562 10.960938 124.339844 C 11.996094 121.449219 13.101562 118.585938 14.273438 115.75 C 15.449219 112.917969 16.691406 110.113281 18.003906 107.335938 C 19.316406 104.5625 20.695312 101.824219 22.140625 99.117188 C 23.589844 96.410156 25.101562 93.742188 26.679688 91.109375 C 28.253906 88.476562 29.898438 85.886719 31.601562 83.332031 C 33.308594 80.78125 35.074219 78.273438 36.902344 75.808594 C 38.730469 73.34375 40.617188 70.925781 42.5625 68.554688 C 44.511719 66.183594 46.515625 63.859375 48.574219 61.585938 C 50.636719 59.3125 52.75 57.089844 54.921875 54.917969 C 57.089844 52.75 59.3125 50.632812 61.585938 48.574219 C 63.859375 46.511719 66.183594 44.507812 68.554688 42.5625 C 70.925781 40.617188 73.34375 38.726562 75.808594 36.898438 C 78.273438 35.070312 80.785156 33.304688 83.335938 31.601562 C 85.886719 29.894531 88.476562 28.253906 91.109375 26.675781 C 93.742188 25.097656 96.410156 23.585938 99.117188 22.140625 C 101.824219 20.695312 104.566406 19.316406 107.339844 18.003906 C 110.113281 16.691406 112.917969 15.449219 115.753906 14.273438 C 118.585938 13.097656 121.449219 11.996094 124.339844 10.960938 C 127.226562 9.925781 130.140625 8.964844 133.078125 8.074219 C 136.015625 7.183594 138.972656 6.363281 141.949219 5.621094 C 144.925781 4.875 147.917969 4.203125 150.925781 3.601562 C 153.9375 3.003906 156.960938 2.480469 159.996094 2.03125 C 163.03125 1.578125 166.074219 1.203125 169.128906 0.902344 C 172.183594 0.601562 175.242188 0.375 178.308594 0.226562 C 181.371094 0.0742188 184.441406 0 187.507812 0 C 190.578125 0 193.644531 0.0742188 196.707031 0.226562 C 199.773438 0.375 202.832031 0.601562 205.886719 0.902344 C 208.941406 1.203125 211.984375 1.578125 215.019531 2.03125 C 218.058594 2.480469 221.078125 3.003906 224.089844 3.601562 C 227.097656 4.203125 230.09375 4.875 233.070312 5.621094 C 236.046875 6.363281 239.003906 7.183594 241.9375 8.074219 C 244.875 8.964844 247.789062 9.925781 250.675781 10.960938 C 253.566406 11.996094 256.429688 13.097656 259.265625 14.273438 C 262.097656 15.449219 264.902344 16.691406 267.679688 18.003906 C 270.453125 19.316406 273.191406 20.695312 275.898438 22.140625 C 278.605469 23.585938 281.273438 25.097656 283.90625 26.675781 C 286.539062 28.253906 289.128906 29.894531 291.683594 31.601562 C 294.234375 33.304688 296.742188 35.070312 299.207031 36.898438 C 301.671875 38.726562 304.089844 40.617188 306.460938 42.5625 C 308.832031 44.507812 311.15625 46.511719 313.429688 48.574219 C 315.703125 50.632812 317.925781 52.75 320.097656 54.917969 C 322.265625 57.089844 324.382812 59.3125 326.441406 61.585938 C 328.503906 63.859375 330.507812 66.183594 332.453125 68.554688 C 334.398438 70.925781 336.289062 73.34375 338.117188 75.808594 C 339.945312 78.273438 341.710938 80.78125 343.414062 83.332031 C 345.121094 85.886719 346.761719 88.476562 348.339844 91.109375 C 349.917969 93.742188 351.429688 96.410156 352.875 99.117188 C 354.320312 101.824219 355.699219 104.5625 357.011719 107.335938 C 358.324219 110.113281 359.566406 112.917969 360.742188 115.75 C 361.917969 118.585938 363.019531 121.449219 364.054688 124.339844 C 365.089844 127.226562 366.050781 130.140625 366.941406 133.078125 C 367.832031 136.011719 368.652344 138.96875 369.394531 141.945312 C 370.140625 144.921875 370.8125 147.917969 371.414062 150.925781 C 372.011719 153.9375 372.535156 156.957031 372.984375 159.992188 C 373.4375 163.03125 373.8125 166.074219 374.113281 169.128906 C 374.414062 172.183594 374.640625 175.242188 374.789062 178.304688 C 374.941406 181.371094 375.015625 184.4375 375.015625 187.507812 Z M 375.015625 187.507812 "/>
<path style=" stroke:none;fill-rule:nonzero;fill:rgb(100%,100%,100%);fill-opacity:1;" d="M 356.476562 187.507812 C 356.476562 190.273438 356.40625 193.039062 356.273438 195.800781 C 356.136719 198.5625 355.933594 201.316406 355.660156 204.070312 C 355.390625 206.820312 355.050781 209.566406 354.648438 212.300781 C 354.242188 215.035156 353.769531 217.761719 353.230469 220.472656 C 352.6875 223.183594 352.082031 225.882812 351.410156 228.5625 C 350.738281 231.246094 350.003906 233.910156 349.199219 236.558594 C 348.398438 239.203125 347.53125 241.828125 346.597656 244.433594 C 345.667969 247.035156 344.671875 249.613281 343.613281 252.167969 C 342.554688 254.722656 341.433594 257.25 340.253906 259.75 C 339.070312 262.25 337.828125 264.71875 336.523438 267.160156 C 335.21875 269.597656 333.859375 272.003906 332.4375 274.375 C 331.015625 276.746094 329.535156 279.082031 328 281.382812 C 326.464844 283.679688 324.871094 285.941406 323.222656 288.160156 C 321.578125 290.382812 319.875 292.5625 318.121094 294.699219 C 316.367188 296.835938 314.5625 298.929688 312.703125 300.980469 C 310.847656 303.027344 308.941406 305.03125 306.984375 306.984375 C 305.03125 308.941406 303.027344 310.847656 300.980469 312.703125 C 298.929688 314.5625 296.835938 316.367188 294.699219 318.121094 C 292.5625 319.875 290.382812 321.578125 288.160156 323.222656 C 285.941406 324.871094 283.679688 326.464844 281.382812 328 C 279.082031 329.535156 276.746094 331.015625 274.375 332.4375 C 272.003906 333.859375 269.597656 335.21875 267.160156 336.523438 C 264.71875 337.828125 262.25 339.070312 259.75 340.253906 C 257.25 341.433594 254.722656 342.554688 252.167969 343.613281 C 249.613281 344.671875 247.035156 345.667969 244.433594 346.597656 C 241.828125 347.53125 239.203125 348.398438 236.558594 349.199219 C 233.910156 350.003906 231.246094 350.738281 228.5625 351.410156 C 225.882812 352.082031 223.183594 352.6875 220.472656 353.230469 C 217.761719 353.769531 215.035156 354.242188 212.300781 354.648438 C 209.566406 355.050781 206.820312 355.390625 204.070312 355.660156 C 201.316406 355.933594 198.5625 356.136719 195.800781 356.273438 C 193.039062 356.40625 190.273438 356.476562 187.507812 356.476562 C 184.742188 356.476562 181.980469 356.40625 179.21875 356.273438 C 176.457031 356.136719 173.699219 355.933594 170.945312 355.660156 C 168.195312 355.390625 165.449219 355.050781 162.714844 354.648438 C 159.980469 354.242188 157.257812 353.769531 154.542969 353.230469 C 151.832031 352.6875 149.136719 352.082031 146.453125 351.410156 C 143.769531 350.738281 141.105469 350.003906 138.460938 349.199219 C 135.8125 348.398438 133.1875 347.53125 130.585938 346.597656 C 127.980469 345.667969 125.402344 344.671875 122.847656 343.613281 C 120.292969 342.554688 117.765625 341.433594 115.265625 340.253906 C 112.765625 339.070312 110.296875 337.828125 107.859375 336.523438 C 105.417969 335.21875 103.015625 333.859375 100.640625 332.4375 C 98.269531 331.015625 95.933594 329.535156 93.636719 328 C 91.335938 326.464844 89.074219 324.871094 86.855469 323.222656 C 84.632812 321.578125 82.453125 319.875 80.316406 318.121094 C 78.179688 316.367188 76.085938 314.5625 74.035156 312.703125 C 71.988281 310.847656 69.984375 308.941406 68.03125 306.984375 C 66.074219 305.03125 64.167969 303.027344 62.3125 300.980469 C 60.453125 298.929688 58.648438 296.835938 56.894531 294.699219 C 55.140625 292.5625 53.441406 290.382812 51.792969 288.160156 C 50.144531 285.941406 48.554688 283.679688 47.015625 281.382812 C 45.480469 279.082031 44.003906 276.746094 42.582031 274.375 C 41.160156 272.003906 39.796875 269.597656 38.492188 267.160156 C 37.1875 264.71875 35.945312 262.25 34.765625 259.75 C 33.582031 257.25 32.460938 254.722656 31.402344 252.167969 C 30.34375 249.613281 29.351562 247.035156 28.417969 244.433594 C 27.488281 241.828125 26.621094 239.203125 25.816406 236.558594 C 25.015625 233.910156 24.277344 231.246094 23.605469 228.5625 C 22.933594 225.882812 22.328125 223.183594 21.789062 220.472656 C 21.25 217.761719 20.777344 215.035156 20.371094 212.300781 C 19.964844 209.566406 19.625 206.820312 19.355469 204.070312 C 19.082031 201.316406 18.878906 198.5625 18.746094 195.800781 C 18.609375 193.039062 18.542969 190.273438 18.542969 187.507812 C 18.542969 184.742188 18.609375 181.980469 18.746094 179.21875 C 18.878906 176.457031 19.082031 173.699219 19.355469 170.945312 C 19.625 168.195312 19.964844 165.449219 20.371094 162.714844 C 20.777344 159.980469 21.25 157.257812 21.789062 154.542969 C 22.328125 151.832031 22.933594 149.136719 23.605469 146.453125 C 24.277344 143.769531 25.015625 141.105469 25.816406 138.460938 C 26.621094 135.8125 27.488281 133.1875 28.417969 130.585938 C 29.351562 127.980469 30.34375 125.402344 31.402344 122.847656 C 32.460938 120.292969 33.582031 117.765625 34.765625 115.265625 C 35.945312 112.765625 37.1875 110.296875 38.492188 107.859375 C 39.796875 105.417969 41.160156 103.015625 42.582031 100.640625 C 44.003906 98.269531 45.480469 95.933594 47.015625 93.636719 C 48.554688 91.335938 50.144531 89.074219 51.792969 86.855469 C 53.441406 84.632812 55.140625 82.453125 56.894531 80.316406 C 58.648438 78.179688 60.453125 76.085938 62.3125 74.035156 C 64.167969 71.988281 66.074219 69.984375 68.03125 68.03125 C 69.984375 66.074219 71.988281 64.167969 74.035156 62.3125 C 76.085938 60.453125 78.179688 58.648438 80.316406 56.894531 C 82.453125 55.140625 84.632812 53.441406 86.855469 51.792969 C 89.074219 50.144531 91.335938 48.554688 93.636719 47.015625 C 95.933594 45.480469 98.269531 44.003906 100.640625 42.582031 C 103.015625 41.160156 105.417969 39.796875 107.859375 38.492188 C 110.296875 37.1875 112.765625 35.945312 115.265625 34.765625 C 117.765625 33.582031 120.292969 32.460938 122.847656 31.402344 C 125.402344 30.34375 127.980469 29.351562 130.585938 28.417969 C 133.1875 27.488281 135.8125 26.621094 138.460938 25.816406 C 141.105469 25.015625 143.769531 24.277344 146.453125 23.605469 C 149.136719 22.933594 151.832031 22.328125 154.542969 21.789062 C 157.257812 21.25 159.980469 20.777344 162.714844 20.371094 C 165.449219 19.964844 168.195312 19.625 170.945312 19.355469 C 173.699219 19.082031 176.457031 18.878906 179.21875 18.746094 C 181.980469 18.609375 184.742188 18.542969 187.507812 18.542969 C 190.273438 18.542969 193.039062 18.609375 195.800781 18.746094 C 198.5625 18.878906 201.316406 19.082031 204.070312 19.355469 C 206.820312 19.625 209.566406 19.964844 212.300781 20.371094 C 215.035156 20.777344 217.761719 21.25 220.472656 21.789062 C 223.183594 22.328125 225.882812 22.933594 228.5625 23.605469 C 231.246094 24.277344 233.910156 25.015625 236.558594 25.816406 C 239.203125 26.621094 241.828125 27.488281 244.433594 28.417969 C 247.035156 29.351562 249.613281 30.34375 252.167969 31.402344 C 254.722656 32.460938 257.25 33.582031 259.75 34.765625 C 262.25 35.945312 264.71875 37.1875 267.160156 38.492188 C 269.597656 39.796875 272.003906 41.160156 274.375 42.582031 C 276.746094 44.003906 279.082031 45.480469 281.382812 47.015625 C 283.679688 48.554688 285.941406 50.144531 288.160156 51.792969 C 290.382812 53.441406 292.5625 55.140625 294.699219 56.894531 C 296.835938 58.648438 298.929688 60.453125 300.980469 62.3125 C 303.027344 64.167969 305.03125 66.074219 306.984375 68.03125 C 308.941406 69.984375 310.847656 71.988281 312.703125 74.035156 C 314.5625 76.085938 316.367188 78.179688 318.121094 80.316406 C 319.875 82.453125 321.578125 84.632812 323.222656 86.855469 C 324.871094 89.074219 326.464844 91.335938 328 93.636719 C 329.535156 95.933594 331.015625 98.269531 332.4375 100.640625 C 333.859375 103.015625 335.21875 105.417969 336.523438 107.859375 C 337.828125 110.296875 339.070312 112.765625 340.253906 115.265625 C 341.433594 117.765625 342.554688 120.292969 343.613281 122.847656 C 344.671875 125.402344 345.667969 127.980469 346.597656 130.585938 C 347.53125 133.1875 348.398438 135.8125 349.199219 138.460938 C 350.003906 141.105469 350.738281 143.769531 351.410156 146.453125 C 352.082031 149.136719 352.6875 151.832031 353.230469 154.542969 C 353.769531 157.257812 354.242188 159.980469 354.648438 162.714844 C 355.050781 165.449219 355.390625 168.195312 355.660156 170.945312 C 355.933594 173.699219 356.136719 176.457031 356.273438 179.21875 C 356.40625 181.980469 356.476562 184.742188 356.476562 187.507812 Z M 356.476562 187.507812 "/>
<path style=" stroke:none;fill-rule:evenodd;fill:rgb(0%,1.179504%,3.529358%);fill-opacity:1;" d="M 99.25 143.386719 L 32.316406 181.722656 C 32.246094 183.644531 32.199219 185.570312 32.199219 187.507812 C 32.199219 240.457031 58.699219 287.207031 99.15625 315.242188 Z M 269.8125 133.085938 L 270.039062 55.925781 C 246.125 40.898438 217.835938 32.195312 187.507812 32.195312 C 163.6875 32.195312 141.125 37.566406 120.953125 47.148438 Z M 105.203125 241.929688 L 104.976562 319.089844 C 128.890625 334.117188 157.179688 342.816406 187.507812 342.816406 C 211.328125 342.816406 233.890625 337.445312 254.0625 327.863281 Z M 181.457031 89.019531 L 32.691406 175.070312 C 36.988281 120.898438 69.078125 74.554688 114.703125 50.296875 Z M 193.5625 285.992188 L 342.324219 199.945312 C 338.027344 254.117188 305.9375 300.460938 260.3125 324.722656 Z M 275.765625 231.625 L 342.699219 193.292969 C 342.769531 191.371094 342.820312 189.445312 342.820312 187.507812 C 342.820312 134.558594 316.316406 87.808594 275.859375 59.769531 Z M 275.765625 231.625 "/>
<path style=" stroke:none;fill-rule:evenodd;fill:rgb(0%,1.179504%,3.529358%);fill-opacity:1;" d="M 166.332031 114.703125 C 206.527344 103.011719 248.621094 126.121094 260.308594 166.332031 C 272.015625 206.53125 248.890625 248.605469 208.679688 260.3125 C 168.464844 272.003906 126.390625 248.890625 114.699219 208.679688 C 103.011719 168.46875 126.121094 126.390625 166.332031 114.703125 Z M 166.332031 114.703125 "/>
<path style=" stroke:none;fill-rule:evenodd;fill:rgb(100%,100%,100%);fill-opacity:1;" d="M 136.105469 171.6875 C 135.945312 175.230469 133.007812 178.039062 129.433594 178.015625 C 125.78125 177.988281 122.523438 174.867188 122.855469 171.128906 C 124.335938 154.40625 137.464844 139.164062 152.0625 131.800781 C 155.402344 130.113281 159.457031 131.808594 160.921875 135.179688 C 162.367188 138.503906 160.789062 142.238281 157.617188 143.84375 C 148.078125 148.679688 138.210938 161.109375 136.105469 171.6875 Z M 136.105469 171.6875 "/>
<path style=" stroke:none;fill-rule:nonzero;fill:rgb(100%,100%,100%);fill-opacity:1;" d="M 180.230469 128.128906 C 180.230469 128.570312 180.1875 129.007812 180.101562 129.441406 C 180.015625 129.871094 179.886719 130.292969 179.71875 130.699219 C 179.550781 131.109375 179.34375 131.496094 179.097656 131.863281 C 178.851562 132.226562 178.574219 132.566406 178.261719 132.878906 C 177.949219 133.191406 177.609375 133.46875 177.242188 133.714844 C 176.878906 133.960938 176.488281 134.167969 176.082031 134.335938 C 175.675781 134.503906 175.253906 134.632812 174.824219 134.71875 C 174.390625 134.804688 173.953125 134.847656 173.511719 134.847656 C 173.070312 134.847656 172.632812 134.804688 172.203125 134.71875 C 171.769531 134.632812 171.347656 134.503906 170.941406 134.335938 C 170.535156 134.167969 170.148438 133.960938 169.78125 133.714844 C 169.414062 133.46875 169.074219 133.191406 168.761719 132.878906 C 168.453125 132.566406 168.171875 132.226562 167.929688 131.863281 C 167.683594 131.496094 167.476562 131.109375 167.308594 130.699219 C 167.136719 130.292969 167.011719 129.871094 166.925781 129.441406 C 166.839844 129.007812 166.796875 128.570312 166.796875 128.128906 C 166.796875 127.6875 166.839844 127.253906 166.925781 126.820312 C 167.011719 126.386719 167.136719 125.96875 167.308594 125.558594 C 167.476562 125.152344 167.683594 124.765625 167.929688 124.398438 C 168.171875 124.03125 168.453125 123.691406 168.761719 123.378906 C 169.074219 123.070312 169.414062 122.789062 169.78125 122.546875 C 170.148438 122.300781 170.535156 122.09375 170.941406 121.925781 C 171.347656 121.753906 171.769531 121.628906 172.203125 121.542969 C 172.632812 121.457031 173.070312 121.414062 173.511719 121.414062 C 173.953125 121.414062 174.390625 121.457031 174.824219 121.542969 C 175.253906 121.628906 175.675781 121.753906 176.082031 121.925781 C 176.488281 122.09375 176.878906 122.300781 177.242188 122.546875 C 177.609375 122.789062 177.949219 123.070312 178.261719 123.378906 C 178.574219 123.691406 178.851562 124.03125 179.097656 124.398438 C 179.34375 124.765625 179.550781 125.152344 179.71875 125.558594 C 179.886719 125.96875 180.015625 126.386719 180.101562 126.820312 C 180.1875 127.253906 180.230469 127.6875 180.230469 128.128906 Z M 180.230469 128.128906 "/>
</g>
</svg>
